<svg width="102" height="37" viewBox="0 0 102 37" fill="none" xmlns="http://www.w3.org/2000/svg">
<rect width="102" height="37" fill="black"/>
<path d="M26.0365 16.048L27.6045 20.668H24.4685L26.0365 16.048ZM24.0065 22.348H28.0665L28.6125 24H31.0765L27.7445 14.032H24.3285L20.9825 24H23.4605L24.0065 22.348ZM38.4242 20.43V18.638H34.8122V16.048H39.2502V14.032H32.4602V24H34.8122V20.43H38.4242ZM45.7414 22.334C43.9774 22.334 42.7174 20.962 42.7174 19.016C42.7174 17.07 43.9634 15.698 45.7414 15.698C47.0294 15.698 48.1494 16.58 48.4294 17.812L50.6414 17.56C50.2774 15.306 48.2054 13.682 45.6854 13.682C42.6054 13.682 40.3654 15.922 40.3654 19.016C40.3654 22.11 42.6054 24.35 45.6854 24.35C48.2334 24.35 50.3054 22.768 50.6414 20.57L48.4434 20.276C48.1354 21.466 47.0014 22.334 45.7414 22.334ZM56.7278 14.032V24H59.0798V14.032H56.7278ZM61.1248 16.832V24H63.2248V19.968C63.2248 19.058 63.8968 18.4 64.7228 18.4C65.5488 18.4 66.0528 19.016 66.0528 19.884V24H68.1528V19.52C68.1528 17.798 67.0608 16.552 65.4508 16.552C64.5128 16.552 63.6728 17.028 63.1688 17.798V16.832H61.1248ZM73.4178 16.552C71.1498 16.552 69.5118 18.176 69.5118 20.416C69.5118 22.656 71.1638 24.28 73.4178 24.28C75.2658 24.28 76.8338 23.09 77.0998 21.438L75.1398 21.186C74.9438 21.956 74.2578 22.516 73.4318 22.516C72.3958 22.516 71.6118 21.634 71.6118 20.416C71.6118 19.198 72.4098 18.316 73.4318 18.316C74.2298 18.316 74.9438 18.876 75.1258 19.646L77.0858 19.394C76.8618 17.742 75.2938 16.552 73.4178 16.552ZM79.4662 24.224C80.1802 24.224 80.6842 23.734 80.6842 23.034C80.6842 22.348 80.1802 21.858 79.4662 21.858C78.7662 21.858 78.2482 22.348 78.2482 23.034C78.2482 23.734 78.7662 24.224 79.4662 24.224Z" fill="white"/>
</svg>
